<mxfile host="app.diagrams.net" modified="2021-03-15T13:50:44.177Z" agent="5.0 (Windows)" etag="8O5Gk4WftvUJgw5bFtMt" version="14.4.8" type="github">
  <diagram id="50OeZSHpAHu09W7ZRqjA" name="Page-1">
    <mxGraphModel dx="1178" dy="642" grid="1" gridSize="10" guides="1" tooltips="1" connect="1" arrows="1" fold="1" page="1" pageScale="1" pageWidth="850" pageHeight="1100" math="0" shadow="0">
      <root>
        <mxCell id="0" />
        <mxCell id="1" parent="0" />
        <mxCell id="SL34x4D0fBkVTJps8hg8-1" value="" style="rounded=0;whiteSpace=wrap;html=1;" vertex="1" parent="1">
          <mxGeometry x="410" y="270" width="240" height="350" as="geometry" />
        </mxCell>
        <mxCell id="SL34x4D0fBkVTJps8hg8-7" value="" style="rounded=0;orthogonalLoop=1;jettySize=auto;html=1;endArrow=none;endFill=0;entryX=0;entryY=0.5;entryDx=0;entryDy=0;" edge="1" parent="1" source="SL34x4D0fBkVTJps8hg8-2" target="SL34x4D0fBkVTJps8hg8-4">
          <mxGeometry relative="1" as="geometry" />
        </mxCell>
        <mxCell id="SL34x4D0fBkVTJps8hg8-8" value="" style="edgeStyle=none;rounded=0;orthogonalLoop=1;jettySize=auto;html=1;endArrow=none;endFill=0;entryX=0;entryY=0;entryDx=0;entryDy=0;" edge="1" parent="1" source="SL34x4D0fBkVTJps8hg8-2" target="SL34x4D0fBkVTJps8hg8-5">
          <mxGeometry relative="1" as="geometry" />
        </mxCell>
        <mxCell id="SL34x4D0fBkVTJps8hg8-11" value="" style="edgeStyle=none;rounded=0;orthogonalLoop=1;jettySize=auto;html=1;endArrow=none;endFill=0;" edge="1" parent="1" source="SL34x4D0fBkVTJps8hg8-2" target="SL34x4D0fBkVTJps8hg8-3">
          <mxGeometry relative="1" as="geometry" />
        </mxCell>
        <mxCell id="SL34x4D0fBkVTJps8hg8-2" value="Projektleder" style="shape=umlActor;verticalLabelPosition=bottom;verticalAlign=top;html=1;outlineConnect=0;" vertex="1" parent="1">
          <mxGeometry x="280" y="340" width="60" height="110" as="geometry" />
        </mxCell>
        <mxCell id="SL34x4D0fBkVTJps8hg8-3" value="Angiv start/slut dato for aktivitet" style="ellipse;whiteSpace=wrap;html=1;" vertex="1" parent="1">
          <mxGeometry x="420" y="320" width="120" height="80" as="geometry" />
        </mxCell>
        <mxCell id="SL34x4D0fBkVTJps8hg8-4" value="Se ledige medarbejdere" style="ellipse;whiteSpace=wrap;html=1;" vertex="1" parent="1">
          <mxGeometry x="420" y="405" width="120" height="80" as="geometry" />
        </mxCell>
        <mxCell id="SL34x4D0fBkVTJps8hg8-5" value="Registrer tid brugt pÃ¥ aktivitet" style="ellipse;whiteSpace=wrap;html=1;" vertex="1" parent="1">
          <mxGeometry x="425" y="500" width="120" height="80" as="geometry" />
        </mxCell>
        <mxCell id="SL34x4D0fBkVTJps8hg8-10" value="" style="edgeStyle=none;rounded=0;orthogonalLoop=1;jettySize=auto;html=1;endArrow=none;endFill=0;" edge="1" parent="1" source="SL34x4D0fBkVTJps8hg8-9" target="SL34x4D0fBkVTJps8hg8-5">
          <mxGeometry relative="1" as="geometry" />
        </mxCell>
        <mxCell id="SL34x4D0fBkVTJps8hg8-9" value="Medarbejder" style="shape=umlActor;verticalLabelPosition=bottom;verticalAlign=top;html=1;outlineConnect=0;" vertex="1" parent="1">
          <mxGeometry x="280" y="485" width="60" height="110" as="geometry" />
        </mxCell>
        <mxCell id="SL34x4D0fBkVTJps8hg8-12" value="Tidsregistering" style="text;html=1;strokeColor=none;fillColor=none;align=center;verticalAlign=middle;whiteSpace=wrap;rounded=0;" vertex="1" parent="1">
          <mxGeometry x="440" y="280" width="40" height="20" as="geometry" />
        </mxCell>
      </root>
    </mxGraphModel>
  </diagram>
</mxfile>
